<svg width="472" height="137" viewBox="0 0 472 137" fill="none" xmlns="http://www.w3.org/2000/svg">
<path d="M46.343 102.014L44.845 102.874L44.846 101.151C44.846 101.151 44.8254 102.032 45.2243 102.253C45.6152 102.468 46.343 102.014 46.343 102.014Z" fill="#8E3315"/>
<path d="M7.9021 100.234C16.3447 116.144 30.7842 128.058 48.0442 133.358C65.3042 138.659 83.9706 136.91 99.9372 128.497C115.904 120.083 127.863 105.693 133.183 88.494C138.503 71.2945 136.712 52.6932 128.27 36.7832C135.884 60.6933 109.378 69.0932 109.378 69.0932L77.2989 85.8008L43.9595 103.129C43.9595 103.129 21.2371 117.706 7.9021 100.234Z" fill="#473ADE"/>
<path d="M7.78296 100.352C16.2255 116.262 30.6651 128.178 47.9249 133.478C65.1849 138.779 83.8513 137.031 99.8179 128.617C115.785 120.203 127.744 105.814 133.063 88.614C138.384 71.4144 136.63 52.8136 128.187 36.9038C135.801 60.8137 109.259 69.2132 109.259 69.2132L77.1798 85.9208L43.8404 103.249C43.8404 103.249 21.1181 117.824 7.78296 100.352Z" fill="url(#paint0_linear_94_3)"/>
<path d="M109.547 67.8843L110.915 68.6205L108.971 69.3221C108.971 69.3221 109.97 68.9781 110.112 68.5986C110.253 68.2271 109.547 67.8843 109.547 67.8843Z" fill="#292282"/>
<path d="M128.684 99.5259C136.928 83.5131 138.45 64.8923 132.917 47.7598C127.383 30.627 115.247 16.3864 99.1773 8.17014C83.1075 -0.0461351 64.4207 -1.56481 47.2278 3.94818C30.0351 9.46115 15.7447 21.5544 7.50024 37.5669C22.7989 17.6467 44.9177 34.5065 44.9177 34.5065L77.0423 51.1271L110.399 68.421C110.399 68.421 135.408 78.6231 128.684 99.5259Z" fill="#D71D6A"/>
<path d="M128.52 99.4587C136.74 83.4935 138.258 64.9281 132.742 47.8466C127.224 30.7652 115.124 16.5666 99.1018 8.37493C83.0798 0.183064 64.4486 -1.33101 47.3072 4.16546C30.1656 9.66209 15.9177 21.7192 7.69775 37.6843C22.9507 17.8231 45.0037 34.6329 45.0037 34.6329L77.0327 51.2039L110.29 68.4465C110.29 68.4465 135.224 78.6182 128.52 99.4587Z" fill="url(#paint1_linear_94_3)"/>
<path d="M44.8545 36.1122L44.8267 34.3081L46.4086 35.186C46.4086 35.186 45.6099 34.7185 45.2046 34.9703C44.8075 35.217 44.8545 36.1122 44.8545 36.1122Z" fill="#741039"/>
<path d="M68.0965 0.668945C50.0361 0.668945 32.7156 7.81889 19.945 20.5458C7.17443 33.2727 0 50.5342 0 68.533C0 86.5317 7.17443 103.793 19.945 116.521C32.7156 129.248 50.0361 136.397 68.0965 136.397C44.9176 132.519 44.9176 102.593 44.9176 102.593V68.533V33.8703C44.9176 33.8703 44.9176 4.8032 68.0965 0.668945Z" fill="#FF5B25"/>
<path d="M68.0965 0.512695C50.0361 0.512695 32.7156 7.66264 19.945 20.3896C7.17444 33.1166 0 50.378 0 68.3767C0 86.3755 7.17441 103.637 19.945 116.364C32.7156 129.091 50.0361 136.241 68.0965 136.241C44.9176 128.861 44.9176 102.633 44.9176 102.633V68.4606V34.5064C44.9176 34.5064 44.0743 4.91038 68.0965 0.512695Z" fill="url(#paint2_linear_94_3)"/>
<path d="M67.9181 136.368C44.918 125.928 44.945 102.621 44.945 102.621C44.945 102.621 16.4377 118.646 6.84058 98.1494C6.84058 98.1494 22.9286 136.503 67.9181 136.368Z" fill="#473ADE"/>
<path d="M188.422 51.2882C186.247 51.2882 184.341 51.7471 182.71 52.665C181.077 53.583 179.695 54.8347 178.565 56.4203C177.476 58.0056 176.64 59.8417 176.053 61.9279C175.509 64.0141 175.237 66.2046 175.237 68.4992C175.237 70.6688 175.509 72.7969 176.053 74.8832C176.64 76.9276 177.476 78.7635 178.565 80.3905C179.695 81.9762 181.077 83.2697 182.71 84.2709C184.341 85.2306 186.247 85.7103 188.422 85.7103C190.139 85.7103 191.793 85.3349 193.383 84.584C194.974 83.7912 196.377 82.6642 197.59 81.2043C198.803 79.7439 199.767 77.9497 200.479 75.8216C201.231 73.6939 201.609 71.2533 201.609 68.4992C201.609 66.0376 201.295 63.7638 200.666 61.6776C200.081 59.5494 199.222 57.7344 198.092 56.2325C196.963 54.6887 195.581 53.4786 193.948 52.6025C192.316 51.7262 190.474 51.2882 188.422 51.2882ZM188.422 92.1565C184.781 92.1565 181.558 91.5518 178.754 90.3415C175.948 89.1314 173.563 87.4834 171.596 85.3972C169.671 83.2697 168.205 80.7659 167.2 77.887C166.196 75.0084 165.693 71.8789 165.693 68.4992C165.693 65.2448 166.196 62.1782 167.2 59.2991C168.246 56.4203 169.733 53.9168 171.658 51.7889C173.625 49.6193 176.012 47.9295 178.816 46.7194C181.62 45.4677 184.823 44.8418 188.422 44.8418C192.524 44.8418 195.999 45.5512 198.846 46.9698C201.734 48.3885 204.078 50.2451 205.878 52.5399C207.72 54.793 209.038 57.3381 209.833 60.1752C210.671 62.971 211.09 65.7453 211.09 68.4992C211.09 71.5868 210.587 74.5492 209.583 77.3863C208.578 80.2235 207.114 82.7481 205.187 84.9594C203.304 87.129 200.939 88.8811 198.092 90.2164C195.287 91.5099 192.064 92.1565 188.422 92.1565Z" fill="white"/>
<path d="M221.58 45.7812H232.944L242.928 80.8918L243.368 83.1451L243.871 80.8918L253.79 45.7812H265.218L269.487 91.2811H261.262L258.814 56.9841L258.625 53.98L257.871 56.9841L247.95 90.6554H238.721L228.675 56.9215L227.921 53.98L227.733 56.9215L225.409 91.2811H217.183L221.58 45.7812Z" fill="white"/>
<path d="M288.665 59.4249L287.66 57.1718L287.786 59.2997V91.2811H280.126V45.7812H288.79L308.067 76.3856L308.946 78.8893L308.821 76.3856V45.7812H316.731V91.2811H308.821L288.665 59.4249Z" fill="white"/>
<path d="M337.033 91.2811H328.305V45.7812H337.033V91.2811Z" fill="white"/>
<path d="M347.498 45.7812H374.874V52.2276H356.477V91.2811H347.498V45.7812ZM358.863 70.5652C359.071 69.8975 359.344 69.1885 359.679 68.437C360.014 67.6862 360.433 66.9981 360.934 66.3717C361.437 65.7459 362.023 65.2454 362.692 64.8699C363.405 64.4525 364.22 64.2442 365.142 64.2442H372.738V70.5652H358.863Z" fill="white"/>
<path d="M384.103 45.7812H393.145V84.7721H409.596V91.2811H384.103V45.7812Z" fill="white"/>
<path d="M426.25 91.2811H417.522V45.7812H426.25V91.2811Z" fill="white"/>
<path d="M434.016 45.7812H443.937L451.66 60.7392L452.287 62.6795L452.79 60.7392L460.513 45.7812H470.37L456.745 68.2496L471.062 91.2811H461.33L434.016 45.7812ZM442.932 91.2811H433.325L445.757 70.9406C446.134 71.4832 446.574 72.1922 447.075 73.0689C447.578 73.9448 447.977 74.9042 448.269 75.9474C448.604 76.9491 448.77 78.0126 448.77 79.1395C448.813 80.2241 448.562 81.2462 448.018 82.2061L442.932 91.2811Z" fill="white"/>
<defs>
<linearGradient id="paint0_linear_94_3" x1="128.193" y1="60.7976" x2="29.451" y2="158.629" gradientUnits="userSpaceOnUse">
<stop stop-opacity="0.6"/>
<stop offset="0.655513" stop-opacity="0"/>
</linearGradient>
<linearGradient id="paint1_linear_94_3" x1="27.2848" y1="24.0265" x2="163.8" y2="49.1596" gradientUnits="userSpaceOnUse">
<stop stop-opacity="0.6"/>
<stop offset="0.645833" stop-opacity="0"/>
</linearGradient>
<linearGradient id="paint2_linear_94_3" x1="36.4677" y1="127.835" x2="-3.78759" y2="3.4107" gradientUnits="userSpaceOnUse">
<stop stop-opacity="0.6"/>
<stop offset="0.675464" stop-opacity="0"/>
</linearGradient>
</defs>
</svg>
