<svg width="45" height="45" viewBox="0 0 45 45" fill="none" xmlns="http://www.w3.org/2000/svg">
<path d="M22.5 0C10.0936 0 0 10.0936 0 22.5C0 34.9064 10.0936 45 22.5 45C34.9064 45 45 34.9064 45 22.5C45 10.0936 34.9064 0 22.5 0ZM22.7163 10.3846C24.2568 10.3846 25.7626 10.8414 27.0434 11.6972C28.3242 12.553 29.3225 13.7694 29.9119 15.1926C30.5014 16.6157 30.6557 18.1817 30.3552 19.6925C30.0546 21.2033 29.3129 22.5911 28.2236 23.6804C27.1344 24.7696 25.7466 25.5114 24.2358 25.8119C22.725 26.1124 21.159 25.9582 19.7358 25.3687C18.3127 24.7792 17.0963 23.7809 16.2405 22.5001C15.3847 21.2193 14.9279 19.7135 14.9279 18.1731C14.9279 16.1074 15.7485 14.1264 17.2091 12.6658C18.6697 11.2052 20.6507 10.3846 22.7163 10.3846ZM22.5 41.5385C19.8741 41.5396 17.2764 40.996 14.8712 39.9422C12.466 38.8883 10.3055 37.3471 8.5262 35.4159C9.48245 30.4637 18.0714 29.4231 22.5 29.4231C26.9286 29.4231 35.5175 30.4637 36.4738 35.4148C34.6947 37.3464 32.5343 38.8879 30.129 39.9419C27.7238 40.996 25.1261 41.5396 22.5 41.5385Z" fill="black"/>
</svg>
